<svg width="63" height="108" viewBox="0 0 63 108" fill="none" xmlns="http://www.w3.org/2000/svg">
<path d="M5 32.0904C11.7653 28.6584 11.7653 30.0313 22.1735 32.0904C30.5 33.7377 37.4184 32.6863 39.5 32M44.5 31C46.0612 30.3134 53.3571 30.2121 57 32.5" stroke="#57A4FF" stroke-width="4"/>
<path d="M3 17C3.66667 45.5 5 102.8 5 104C5 105.2 6.33333 105.5 7 105.5C22.5 105.5 53.8 105.5 55 105.5C57 105.5 57 104.5 57 104L59 17" stroke="#D1E7F8" stroke-width="5" stroke-linecap="round"/>
<path d="M42.5 7.13599V87.5H41.5V6C41.5 5.40006 41.7005 4.4445 42.2288 3.71076C42.6653 3.1045 43.4148 2.5 45 2.5H60.5V3.5H46C45.3629 3.5 44.5232 3.69415 43.7922 4.29205C42.9575 4.97477 42.5 5.99293 42.5 7.13599Z" stroke="#9BFBFF" stroke-width="5"/>
<mask id="path-4-inside-1_334_2884" fill="white">
<path d="M22 65.5C22 67.433 20.433 69 18.5 69C16.567 69 15 67.433 15 65.5C15 63.567 16.567 62 18.5 62C20.433 62 22 63.567 22 65.5ZM16.575 65.5C16.575 66.5631 17.4369 67.425 18.5 67.425C19.5631 67.425 20.425 66.5631 20.425 65.5C20.425 64.4369 19.5631 63.575 18.5 63.575C17.4369 63.575 16.575 64.4369 16.575 65.5Z"/>
</mask>
<path d="M22 65.5C22 67.433 20.433 69 18.5 69C16.567 69 15 67.433 15 65.5C15 63.567 16.567 62 18.5 62C20.433 62 22 63.567 22 65.5ZM16.575 65.5C16.575 66.5631 17.4369 67.425 18.5 67.425C19.5631 67.425 20.425 66.5631 20.425 65.5C20.425 64.4369 19.5631 63.575 18.5 63.575C17.4369 63.575 16.575 64.4369 16.575 65.5Z" fill="white" stroke="#BAF3FF" stroke-width="2" mask="url(#path-4-inside-1_334_2884)"/>
<mask id="path-5-inside-2_334_2884" fill="white">
<path d="M30 79.5C30 80.8807 28.8807 82 27.5 82C26.1193 82 25 80.8807 25 79.5C25 78.1193 26.1193 77 27.5 77C28.8807 77 30 78.1193 30 79.5ZM26.125 79.5C26.125 80.2594 26.7406 80.875 27.5 80.875C28.2594 80.875 28.875 80.2594 28.875 79.5C28.875 78.7406 28.2594 78.125 27.5 78.125C26.7406 78.125 26.125 78.7406 26.125 79.5Z"/>
</mask>
<path d="M30 79.5C30 80.8807 28.8807 82 27.5 82C26.1193 82 25 80.8807 25 79.5C25 78.1193 26.1193 77 27.5 77C28.8807 77 30 78.1193 30 79.5ZM26.125 79.5C26.125 80.2594 26.7406 80.875 27.5 80.875C28.2594 80.875 28.875 80.2594 28.875 79.5C28.875 78.7406 28.2594 78.125 27.5 78.125C26.7406 78.125 26.125 78.7406 26.125 79.5Z" fill="white" stroke="#BAF3FF" stroke-width="2" mask="url(#path-5-inside-2_334_2884)"/>
<mask id="path-6-inside-3_334_2884" fill="white">
<path d="M33 50.5C33 52.9853 30.9853 55 28.5 55C26.0147 55 24 52.9853 24 50.5C24 48.0147 26.0147 46 28.5 46C30.9853 46 33 48.0147 33 50.5ZM25.8935 50.5C25.8935 51.9396 27.0604 53.1065 28.5 53.1065C29.9396 53.1065 31.1065 51.9396 31.1065 50.5C31.1065 49.0604 29.9396 47.8935 28.5 47.8935C27.0604 47.8935 25.8935 49.0604 25.8935 50.5Z"/>
</mask>
<path d="M33 50.5C33 52.9853 30.9853 55 28.5 55C26.0147 55 24 52.9853 24 50.5C24 48.0147 26.0147 46 28.5 46C30.9853 46 33 48.0147 33 50.5ZM25.8935 50.5C25.8935 51.9396 27.0604 53.1065 28.5 53.1065C29.9396 53.1065 31.1065 51.9396 31.1065 50.5C31.1065 49.0604 29.9396 47.8935 28.5 47.8935C27.0604 47.8935 25.8935 49.0604 25.8935 50.5Z" fill="white" stroke="#BAF3FF" stroke-width="2" mask="url(#path-6-inside-3_334_2884)"/>
</svg>
